<svg version="1.1" id="Layer_1" xmlns="http://www.w3.org/2000/svg" xmlns:xlink="http://www.w3.org/1999/xlink" x="0px" y="0px"
	 width="100%" viewBox="0 0 500 500" enable-background="new 0 0 500 500" xml:space="preserve">
<path fill="#000000" opacity="1.000000" stroke="none" 
	d="
M222.000000,501.000000 
	C148.000015,501.000000 74.500038,501.000000 1.000039,501.000000 
	C1.000026,334.333405 1.000026,167.666779 1.000013,1.000129 
	C167.666565,1.000086 334.333130,1.000086 500.999756,1.000043 
	C500.999847,167.666534 500.999847,334.333069 500.999939,500.999817 
	C408.166656,501.000000 315.333344,501.000000 222.000000,501.000000 
M165.178177,262.672943 
	C166.458176,263.043610 167.738174,263.414246 169.735138,263.875885 
	C171.407089,262.899261 173.079041,261.922638 174.834381,260.897308 
	C173.752838,256.404724 172.708405,252.066299 171.663971,247.727875 
	C171.333038,247.708405 171.002106,247.688950 170.671173,247.669479 
	C170.381882,248.618988 170.092590,249.568512 169.260056,251.018875 
	C168.856232,252.414307 168.452423,253.809738 167.326187,255.114807 
	C164.728699,255.419357 163.212433,260.006989 159.821152,256.349579 
	C160.382278,254.519928 160.943420,252.690292 161.505585,250.857269 
	C156.387390,248.430832 154.254929,253.030014 151.825058,255.629501 
	C150.630249,256.907684 151.491730,260.107971 151.422653,262.438446 
	C153.614548,261.963470 155.815506,261.524811 157.990448,260.981995 
	C158.409653,260.877380 158.727020,260.364685 159.747406,259.847412 
	C161.485611,260.567932 163.223801,261.288452 165.178177,262.672943 
M346.575195,260.895477 
	C346.031769,261.184235 345.488312,261.473022 344.867584,262.518616 
	C345.972046,266.653473 349.180695,266.539673 352.405884,266.130432 
	C355.801819,265.699524 357.122742,263.344147 357.188080,260.211426 
	C357.276672,255.962036 357.210144,251.709396 357.210144,246.923004 
	C355.710632,247.552734 354.865417,247.907700 353.361938,247.846939 
	C349.866211,245.806625 347.177246,247.315811 345.334320,250.189056 
	C342.783997,254.165192 344.177704,257.773743 346.575195,260.895477 
M327.932495,249.237381 
	C332.342072,248.206635 333.416901,250.408188 333.149597,254.330765 
	C332.996765,256.573608 333.384430,258.853271 333.528748,261.116364 
	C334.299896,261.120392 335.071014,261.124390 335.842163,261.128387 
	C335.842163,258.104248 336.227570,255.010651 335.699493,252.081696 
	C335.375854,250.286469 333.907318,247.723709 332.486664,247.368057 
	C331.000305,246.995972 328.955597,248.854218 326.679474,249.032288 
	C323.642395,248.364044 320.605316,247.695801 317.915771,247.104019 
	C317.915771,252.428375 317.915771,256.747162 317.915771,261.065979 
	C318.427429,261.067413 318.939117,261.068848 319.450775,261.070282 
	C319.591614,258.593628 319.436523,256.050262 319.974915,253.663300 
	C320.347961,252.009247 321.676666,250.570724 322.578400,249.035889 
	C323.364685,250.563080 324.538483,252.016510 324.846466,253.634735 
	C325.308075,256.060089 325.161865,258.601105 325.274139,261.092926 
	C325.946716,261.058838 326.619263,261.024750 327.291840,260.990662 
	C327.291840,257.283569 327.291840,253.576447 327.932495,249.237381 
M267.964111,263.912201 
	C267.964111,257.352631 267.964111,250.793045 267.964111,244.233475 
	C267.540466,244.064148 267.116821,243.894821 266.693146,243.725494 
	C265.890778,246.072830 265.088409,248.420181 263.919769,251.839111 
	C262.968262,249.376511 262.361725,247.931839 261.847595,246.454987 
	C259.282074,239.085327 256.805023,231.683823 254.132843,224.353302 
	C253.641388,223.005096 252.393280,221.932724 251.494431,220.733002 
	C250.625916,221.983337 249.440323,223.118515 248.937973,224.501846 
	C243.951721,238.232742 239.088104,252.008118 234.157120,265.759216 
	C233.702744,267.026367 233.022598,268.212585 232.447281,269.436371 
	C231.943253,269.395355 231.439209,269.354340 230.935181,269.313293 
	C230.621765,267.559570 230.042740,265.806824 230.036011,264.051941 
	C229.968399,246.396515 229.994583,228.740723 229.994476,211.085037 
	C229.994415,200.139099 229.994537,200.141632 241.049820,199.924225 
	C241.345276,199.918411 241.636688,199.708282 243.447418,198.999207 
	C241.663879,197.767029 240.620331,196.425400 239.552582,196.405884 
	C230.394684,196.238342 221.231064,196.237656 212.073257,196.407944 
	C211.011490,196.427673 209.974731,197.791946 208.926376,198.532852 
	C209.192673,198.969345 209.458969,199.405838 209.725266,199.842331 
	C210.699890,199.885834 211.674133,199.954590 212.649170,199.968781 
	C220.011856,200.075958 220.013336,200.072632 220.013657,207.283478 
	C220.014465,225.605408 220.014679,243.927338 220.013474,262.249268 
	C220.013000,269.235199 220.005341,269.140961 212.999893,269.555817 
	C211.662933,269.635010 210.389343,270.784302 209.086517,271.439880 
	C209.324997,272.010345 209.563461,272.580780 209.801941,273.151215 
	C216.865784,273.151215 223.929611,273.151215 231.119537,273.151215 
	C231.036087,274.058380 231.098541,274.578918 230.931915,275.011047 
	C228.424347,281.514343 227.551498,289.594666 217.527008,288.973297 
	C217.232254,288.955017 216.831818,290.641449 216.367310,291.820862 
	C225.974426,291.820862 234.916443,291.820862 245.516861,291.820862 
	C243.579819,290.220001 242.799332,289.026367 241.859604,288.884033 
	C233.375458,287.598724 232.605453,286.138000 234.876480,277.873840 
	C235.961594,273.925079 237.739197,272.654816 241.796021,272.909698 
	C248.094528,273.305359 254.436172,273.014221 260.959015,273.014221 
	C261.906189,275.597382 262.854736,278.063232 263.717072,280.558868 
	C266.266907,287.938232 265.936249,288.357727 258.281891,288.867737 
	C257.092804,288.946991 255.959137,289.858124 254.799835,290.384583 
	C254.991501,290.848938 255.183151,291.313324 255.374817,291.777710 
	C265.638611,291.777710 275.902435,291.777710 286.166229,291.777710 
	C286.334717,291.270203 286.503204,290.762695 286.671692,290.255188 
	C285.445648,289.771759 284.185120,288.804596 282.999512,288.889008 
	C277.975464,289.246735 275.350281,286.882904 273.950134,282.238861 
	C272.178131,276.361267 270.038605,270.594482 267.964111,263.912201 
M164.708862,268.582672 
	C163.978867,267.915863 163.248856,267.249054 162.251236,266.337799 
	C160.259155,268.570374 158.332245,270.729919 156.849869,272.391235 
	C178.829880,294.580566 200.833420,316.793671 222.745621,338.914551 
	C224.670334,336.939423 226.597595,334.961670 228.873627,332.626007 
	C207.872101,311.669525 186.546127,290.389313 164.708862,268.582672 
M325.033905,268.312469 
	C303.143341,290.117493 281.252808,311.922546 259.883148,333.208740 
	C262.272614,335.847595 264.115448,337.882721 265.886169,339.838287 
	C288.618774,317.034760 311.398468,294.183960 334.350494,271.160309 
	C332.376160,269.429352 330.211060,267.531158 327.962524,265.559814 
	C327.272369,266.218201 326.436096,267.016052 325.033905,268.312469 
M190.650314,201.150223 
	C201.053391,190.398163 211.456467,179.646103 222.114487,168.630539 
	C220.612122,167.258347 218.490692,165.320724 215.586807,162.668427 
	C194.129074,184.983109 172.694809,207.273376 150.882019,229.957275 
	C151.983551,230.966995 154.155121,232.957550 157.089844,235.647629 
	C168.138199,224.286102 179.144180,212.968155 190.650314,201.150223 
M287.517151,180.982834 
	C281.952301,175.292389 276.387451,169.601944 270.736359,163.823303 
	C268.278687,166.157333 266.247131,168.086670 264.706604,169.549698 
	C287.657623,192.609497 310.288818,215.347992 333.028320,238.195297 
	C334.798370,236.392761 336.757568,234.397629 338.823151,232.294113 
	C321.942352,215.411560 304.979767,198.447189 287.517151,180.982834 
M134.822708,243.534729 
	C139.561142,248.868530 136.732880,253.842087 134.206055,259.067596 
	C133.103912,258.980530 132.060562,258.644501 131.172836,258.884369 
	C129.648743,259.296204 128.221802,260.067596 126.754074,260.688049 
	C128.238037,261.473846 129.642380,262.623108 131.222656,262.969269 
	C134.451111,263.676544 137.813629,263.767365 141.046906,264.458374 
	C144.112198,265.113403 147.070023,266.170197 148.596573,262.459869 
	C144.612900,261.725708 140.792480,261.021606 136.798965,260.285645 
	C139.470795,254.320496 139.982086,247.612625 147.545914,246.332031 
	C148.338837,246.197769 149.482208,245.041168 149.549332,244.278458 
	C149.771927,241.749695 150.617142,238.088470 149.324722,236.861176 
	C146.647903,234.319199 143.786880,236.287476 142.080566,239.204758 
	C140.858215,241.294601 139.883011,243.529022 138.340347,246.612915 
	C137.633255,244.101761 137.197021,242.552521 136.634903,240.556198 
	C135.897903,241.533813 135.433426,242.149918 134.822708,243.534729 
M304.012146,249.384537 
	C302.684692,253.168961 301.357269,256.953400 300.029846,260.737823 
	C300.366394,261.021790 300.702911,261.305756 301.039459,261.589752 
	C304.062988,259.108948 304.244568,251.544983 310.726227,255.523163 
	C311.700439,257.383453 312.744385,259.376892 313.788330,261.370331 
	C314.307129,261.101166 314.825928,260.832001 315.344727,260.562866 
	C313.587341,255.438599 311.897766,250.289078 310.006714,245.214661 
	C309.686340,244.354996 308.582672,243.495895 307.678955,243.261841 
	C307.190796,243.135406 306.161774,244.216934 305.729706,244.959015 
	C305.069550,246.092728 304.714844,247.404297 304.012146,249.384537 
M252.506851,348.078918 
	C256.017212,344.938324 255.760193,340.830048 254.560349,337.041260 
	C254.078491,335.519684 251.494919,333.903320 249.760788,333.774689 
	C248.324127,333.668121 245.962723,335.394653 245.420273,336.838501 
	C244.871078,338.300323 245.505020,340.961121 246.630829,342.083679 
	C247.737656,343.187317 250.113098,343.018646 252.064270,343.436646 
	C251.328735,346.776001 250.310562,349.360626 247.143280,347.290985 
	C248.088013,347.447144 249.952087,347.755249 252.506851,348.078918 
M246.899643,169.421371 
	C249.119980,169.058472 252.968567,169.199005 253.264725,168.241180 
	C254.276917,164.967392 254.507477,161.243576 254.039902,157.827820 
	C253.864075,156.543365 250.979141,154.828842 249.300812,154.796692 
	C247.880844,154.769501 245.255341,156.831589 245.196671,158.065704 
	C245.024979,161.677872 245.868713,165.338287 246.899643,169.421371 
M370.942719,248.345322 
	C370.051453,247.920349 368.953949,246.932037 368.305176,247.169510 
	C365.721436,248.115250 361.989380,248.856934 361.114197,250.780518 
	C360.065094,253.086426 360.546753,257.325562 362.148590,259.219299 
	C363.490997,260.806335 368.063171,261.383942 369.978271,260.279968 
	C371.896332,259.174286 372.598755,255.500549 373.212769,252.810608 
	C373.470581,251.681351 372.130646,250.187393 370.942719,248.345322 
M242.780563,169.650360 
	C242.780563,168.353378 242.780563,167.056396 242.780563,166.082565 
	C240.785233,166.627762 238.835434,167.160522 236.885635,167.693283 
	C238.310669,164.419022 240.512283,162.358551 241.843018,159.838257 
	C242.399246,158.784805 241.226913,155.452316 240.631653,155.396835 
	C238.222565,155.172302 235.732224,155.819687 233.271881,156.145294 
	C233.498535,157.274948 233.725189,158.404587 234.129486,160.419617 
	C235.696625,158.199173 236.534439,157.012070 237.754440,155.283478 
	C241.575897,162.530807 232.894882,164.592926 232.614059,169.982742 
	C236.055786,169.982742 239.020935,169.982742 242.780563,169.650360 
M381.330536,253.201462 
	C378.092285,252.475754 376.505829,251.167694 379.355774,247.712021 
	C377.693054,248.271805 375.653595,249.249634 375.678162,250.172440 
	C375.717529,251.649261 376.843323,253.407272 378.029266,254.462845 
	C379.431305,255.710709 381.385132,256.338593 383.099762,257.235260 
	C382.968353,257.757263 382.836945,258.279266 382.705536,258.801300 
	C381.368164,258.861206 379.939209,259.239349 378.720154,258.888397 
	C377.582581,258.560944 376.668030,257.458771 374.828033,256.075867 
	C375.581146,260.773834 378.018066,261.705658 380.814514,261.218109 
	C382.333801,260.953217 384.875885,259.307312 384.786652,258.535004 
	C384.585266,256.791809 383.034973,255.204422 381.330536,253.201462 
M240.026184,334.133484 
	C238.287186,334.451752 236.548187,334.770020 234.357513,335.170959 
	C237.889877,338.851532 237.895355,346.139771 235.108398,348.748657 
	C237.597412,348.748657 240.180023,348.748657 241.925766,348.748657 
	C241.393524,347.246979 240.527573,345.783875 240.408264,344.262238 
	C240.163330,341.138184 240.318298,337.982788 240.026184,334.133484 
M340.487457,261.066193 
	C343.320099,256.439484 341.689911,251.824692 341.345062,247.206482 
	C340.764496,247.184891 340.183929,247.163300 339.603363,247.141708 
	C339.603363,251.707031 339.603363,256.272339 340.487457,261.066193 
z"/>
<path fill="#F8F8F8" opacity="1.000000" stroke="none" 
	d="
M268.010834,264.346069 
	C270.038605,270.594482 272.178131,276.361267 273.950134,282.238861 
	C275.350281,286.882904 277.975464,289.246735 282.999512,288.889008 
	C284.185120,288.804596 285.445648,289.771759 286.671692,290.255188 
	C286.503204,290.762695 286.334717,291.270203 286.166229,291.777710 
	C275.902435,291.777710 265.638611,291.777710 255.374817,291.777710 
	C255.183151,291.313324 254.991501,290.848938 254.799835,290.384583 
	C255.959137,289.858124 257.092804,288.946991 258.281891,288.867737 
	C265.936249,288.357727 266.266907,287.938232 263.717072,280.558868 
	C262.854736,278.063232 261.906189,275.597382 260.959015,273.014221 
	C254.436172,273.014221 248.094528,273.305359 241.796021,272.909698 
	C237.739197,272.654816 235.961594,273.925079 234.876480,277.873840 
	C232.605453,286.138000 233.375458,287.598724 241.859604,288.884033 
	C242.799332,289.026367 243.579819,290.220001 245.516861,291.820862 
	C234.916443,291.820862 225.974426,291.820862 216.367310,291.820862 
	C216.831818,290.641449 217.232254,288.955017 217.527008,288.973297 
	C227.551498,289.594666 228.424347,281.514343 230.931915,275.011047 
	C231.098541,274.578918 231.036087,274.058380 231.119537,273.151215 
	C223.929611,273.151215 216.865784,273.151215 209.801941,273.151215 
	C209.563461,272.580780 209.324997,272.010345 209.086517,271.439880 
	C210.389343,270.784302 211.662933,269.635010 212.999893,269.555817 
	C220.005341,269.140961 220.013000,269.235199 220.013474,262.249268 
	C220.014679,243.927338 220.014465,225.605408 220.013657,207.283478 
	C220.013336,200.072632 220.011856,200.075958 212.649170,199.968781 
	C211.674133,199.954590 210.699890,199.885834 209.725266,199.842331 
	C209.458969,199.405838 209.192673,198.969345 208.926376,198.532852 
	C209.974731,197.791946 211.011490,196.427673 212.073257,196.407944 
	C221.231064,196.237656 230.394684,196.238342 239.552582,196.405884 
	C240.620331,196.425400 241.663879,197.767029 243.447418,198.999207 
	C241.636688,199.708282 241.345276,199.918411 241.049820,199.924225 
	C229.994537,200.141632 229.994415,200.139099 229.994476,211.085037 
	C229.994583,228.740723 229.968399,246.396515 230.036011,264.051941 
	C230.042740,265.806824 230.621765,267.559570 230.935181,269.313293 
	C231.439209,269.354340 231.943253,269.395355 232.447281,269.436371 
	C233.022598,268.212585 233.702744,267.026367 234.157120,265.759216 
	C239.088104,252.008118 243.951721,238.232742 248.937973,224.501846 
	C249.440323,223.118515 250.625916,221.983337 251.494446,220.733002 
	C252.393280,221.932724 253.641388,223.005096 254.132843,224.353302 
	C256.805023,231.683823 259.282074,239.085327 261.847595,246.454987 
	C262.361725,247.931839 262.968262,249.376511 263.919769,251.839111 
	C265.088409,248.420181 265.890778,246.072830 266.693146,243.725494 
	C267.116821,243.894821 267.540466,244.064148 267.964111,244.233475 
	C267.964111,250.793045 267.964111,257.352631 268.010834,264.346069 
M251.150696,244.354385 
	C250.398575,242.365189 249.646439,240.375977 248.592300,237.588028 
	C245.138321,248.012878 242.029892,257.394806 238.774582,267.220093 
	C244.078720,267.220093 248.871429,267.257538 253.663269,267.207825 
	C257.278015,267.170349 258.860321,265.943176 257.276642,261.955597 
	C255.081345,256.427917 253.352097,250.715134 251.150696,244.354385 
z"/>
<path fill="#F4F4F4" opacity="1.000000" stroke="none" 
	d="
M164.964508,268.845886 
	C186.546127,290.389313 207.872101,311.669525 228.873627,332.626007 
	C226.597595,334.961670 224.670334,336.939423 222.745621,338.914551 
	C200.833420,316.793671 178.829880,294.580566 156.849869,272.391235 
	C158.332245,270.729919 160.259155,268.570374 162.251236,266.337799 
	C163.248856,267.249054 163.978867,267.915863 164.964508,268.845886 
z"/>
<path fill="#F8F8F8" opacity="1.000000" stroke="none" 
	d="
M325.316833,268.063171 
	C326.436096,267.016052 327.272369,266.218201 327.962524,265.559814 
	C330.211060,267.531158 332.376160,269.429352 334.350494,271.160309 
	C311.398468,294.183960 288.618774,317.034760 265.886169,339.838287 
	C264.115448,337.882721 262.272614,335.847595 259.883148,333.208740 
	C281.252808,311.922546 303.143341,290.117493 325.316833,268.063171 
z"/>
<path fill="#F9F9F9" opacity="1.000000" stroke="none" 
	d="
M190.400238,201.400208 
	C179.144180,212.968155 168.138199,224.286102 157.089844,235.647629 
	C154.155121,232.957550 151.983551,230.966995 150.882019,229.957275 
	C172.694809,207.273376 194.129074,184.983109 215.586807,162.668427 
	C218.490692,165.320724 220.612122,167.258347 222.114487,168.630539 
	C211.456467,179.646103 201.053391,190.398163 190.400238,201.400208 
z"/>
<path fill="#F4F4F4" opacity="1.000000" stroke="none" 
	d="
M287.767151,181.232834 
	C304.979767,198.447189 321.942352,215.411560 338.823151,232.294113 
	C336.757568,234.397629 334.798370,236.392761 333.028320,238.195297 
	C310.288818,215.347992 287.657623,192.609497 264.706604,169.549698 
	C266.247131,168.086670 268.278687,166.157333 270.736359,163.823303 
	C276.387451,169.601944 281.952301,175.292389 287.767151,181.232834 
z"/>
<path fill="#E8E8E8" opacity="1.000000" stroke="none" 
	d="
M134.895844,243.150360 
	C135.433426,242.149918 135.897903,241.533813 136.634903,240.556198 
	C137.197021,242.552521 137.633255,244.101761 138.340347,246.612915 
	C139.883011,243.529022 140.858215,241.294601 142.080566,239.204758 
	C143.786880,236.287476 146.647903,234.319199 149.324722,236.861176 
	C150.617142,238.088470 149.771927,241.749695 149.549332,244.278458 
	C149.482208,245.041168 148.338837,246.197769 147.545914,246.332031 
	C139.982086,247.612625 139.470795,254.320496 136.798965,260.285645 
	C140.792480,261.021606 144.612900,261.725708 148.596573,262.459869 
	C147.070023,266.170197 144.112198,265.113403 141.046906,264.458374 
	C137.813629,263.767365 134.451111,263.676544 131.222656,262.969269 
	C129.642380,262.623108 128.238037,261.473846 126.754074,260.688049 
	C128.221802,260.067596 129.648743,259.296204 131.172836,258.884369 
	C132.060562,258.644501 133.103912,258.980530 134.206055,259.067596 
	C136.732880,253.842087 139.561142,248.868530 134.895844,243.150360 
M142.199524,246.171432 
	C146.794479,245.447937 148.693497,242.336014 146.886780,235.988190 
	C144.996658,239.908447 143.660568,242.679626 142.199524,246.171432 
z"/>
<path fill="#DFDFDF" opacity="1.000000" stroke="none" 
	d="
M304.121307,249.012451 
	C304.714844,247.404297 305.069550,246.092728 305.729706,244.959015 
	C306.161774,244.216934 307.190796,243.135406 307.678955,243.261841 
	C308.582672,243.495895 309.686340,244.354996 310.006714,245.214661 
	C311.897766,250.289078 313.587341,255.438599 315.344727,260.562866 
	C314.825928,260.832001 314.307129,261.101166 313.788330,261.370331 
	C312.744385,259.376892 311.700439,257.383453 310.726227,255.523163 
	C304.244568,251.544983 304.062988,259.108948 301.039459,261.589752 
	C300.702911,261.305756 300.366394,261.021790 300.029846,260.737823 
	C301.357269,256.953400 302.684692,253.168961 304.121307,249.012451 
z"/>
<path fill="#EBEBEB" opacity="1.000000" stroke="none" 
	d="
M252.161499,348.071167 
	C249.952087,347.755249 248.088013,347.447144 247.143280,347.290985 
	C250.310562,349.360626 251.328735,346.776001 252.064270,343.436646 
	C250.113098,343.018646 247.737656,343.187317 246.630829,342.083679 
	C245.505020,340.961121 244.871078,338.300323 245.420273,336.838501 
	C245.962723,335.394653 248.324127,333.668121 249.760788,333.774689 
	C251.494919,333.903320 254.078491,335.519684 254.560349,337.041260 
	C255.760193,340.830048 256.017212,344.938324 252.161499,348.071167 
z"/>
<path fill="#E8E8E8" opacity="1.000000" stroke="none" 
	d="
M246.607117,169.200592 
	C245.868713,165.338287 245.024979,161.677872 245.196671,158.065704 
	C245.255341,156.831589 247.880844,154.769501 249.300812,154.796692 
	C250.979141,154.828842 253.864075,156.543365 254.039902,157.827820 
	C254.507477,161.243576 254.276917,164.967392 253.264725,168.241180 
	C252.968567,169.199005 249.119980,169.058472 246.607117,169.200592 
M251.625015,161.733414 
	C251.238449,159.809601 250.851868,157.885803 250.320999,155.243820 
	C246.991730,159.961777 247.144058,165.649704 250.596588,169.020935 
	C250.989395,166.569580 251.308350,164.579163 251.625015,161.733414 
z"/>
<path fill="#DCDCDC" opacity="1.000000" stroke="none" 
	d="
M371.229889,248.602295 
	C372.130646,250.187393 373.470581,251.681351 373.212769,252.810608 
	C372.598755,255.500549 371.896332,259.174286 369.978271,260.279968 
	C368.063171,261.383942 363.490997,260.806335 362.148590,259.219299 
	C360.546753,257.325562 360.065094,253.086426 361.114197,250.780518 
	C361.989380,248.856934 365.721436,248.115250 368.305176,247.169510 
	C368.953949,246.932037 370.051453,247.920349 371.229889,248.602295 
M362.827850,252.834442 
	C363.553436,254.878403 364.005066,257.104034 365.168060,258.857941 
	C365.527039,259.399353 368.631805,259.138153 369.071899,258.402496 
	C370.086487,256.706512 370.734772,254.449448 370.559418,252.507812 
	C370.448547,251.280075 368.497070,249.210114 367.529663,249.296356 
	C365.940735,249.438004 364.480591,251.024139 362.827850,252.834442 
z"/>
<path fill="#EBEBEB" opacity="1.000000" stroke="none" 
	d="
M242.383316,169.816559 
	C239.020935,169.982742 236.055786,169.982742 232.614059,169.982742 
	C232.894882,164.592926 241.575897,162.530807 237.754440,155.283478 
	C236.534439,157.012070 235.696625,158.199173 234.129486,160.419617 
	C233.725189,158.404587 233.498535,157.274948 233.271881,156.145294 
	C235.732224,155.819687 238.222565,155.172302 240.631653,155.396835 
	C241.226913,155.452316 242.399246,158.784805 241.843018,159.838257 
	C240.512283,162.358551 238.310669,164.419022 236.885635,167.693283 
	C238.835434,167.160522 240.785233,166.627762 242.780563,166.082565 
	C242.780563,167.056396 242.780563,168.353378 242.383316,169.816559 
z"/>
<path fill="#D8D8D8" opacity="1.000000" stroke="none" 
	d="
M159.091370,260.040253 
	C158.727020,260.364685 158.409653,260.877380 157.990448,260.981995 
	C155.815506,261.524811 153.614548,261.963470 151.422653,262.438446 
	C151.491730,260.107971 150.630249,256.907684 151.825058,255.629501 
	C154.254929,253.030014 156.387390,248.430832 161.505585,250.857269 
	C160.943420,252.690292 160.382278,254.519928 159.491638,256.748840 
	C159.138550,258.112152 159.114960,259.076202 159.091370,260.040253 
z"/>
<path fill="#EBEBEB" opacity="1.000000" stroke="none" 
	d="
M354.020172,248.262634 
	C354.865417,247.907700 355.710632,247.552734 357.210144,246.923004 
	C357.210144,251.709396 357.276672,255.962036 357.188080,260.211426 
	C357.122742,263.344147 355.801819,265.699524 352.405884,266.130432 
	C349.180695,266.539673 345.972046,266.653473 345.282898,262.106018 
	C346.638702,262.478760 347.489532,263.740845 348.540466,263.938293 
	C350.140961,264.239044 352.022430,264.137024 353.489105,263.512299 
	C354.064026,263.267426 353.841248,261.149658 353.946655,259.545746 
	C353.857147,258.985901 353.802765,258.765198 353.868652,258.199646 
	C353.980682,255.264847 353.972412,252.674850 353.978821,249.781219 
	C354.002411,249.072586 354.011292,248.667618 354.020172,248.262634 
z"/>
<path fill="#DFDFDF" opacity="1.000000" stroke="none" 
	d="
M327.291840,249.869339 
	C327.291840,253.576447 327.291840,257.283569 327.291840,260.990662 
	C326.619263,261.024750 325.946716,261.058838 325.274139,261.092926 
	C325.161865,258.601105 325.308075,256.060089 324.846466,253.634735 
	C324.538483,252.016510 323.364685,250.563080 322.578369,249.035889 
	C321.676666,250.570724 320.347961,252.009247 319.974915,253.663300 
	C319.436523,256.050262 319.591614,258.593628 319.450775,261.070282 
	C318.939117,261.068848 318.427429,261.067413 317.915771,261.065979 
	C317.915771,256.747162 317.915771,252.428375 317.915771,247.104019 
	C320.605316,247.695801 323.642395,248.364044 326.897644,249.435318 
	C327.115784,249.838348 327.291840,249.869339 327.291840,249.869339 
z"/>
<path fill="#DFDFDF" opacity="1.000000" stroke="none" 
	d="
M381.682007,253.377563 
	C383.034973,255.204422 384.585266,256.791809 384.786652,258.535004 
	C384.875885,259.307312 382.333801,260.953217 380.814514,261.218109 
	C378.018066,261.705658 375.581146,260.773834 374.828033,256.075867 
	C376.668030,257.458771 377.582581,258.560944 378.720154,258.888397 
	C379.939209,259.239349 381.368164,258.861206 382.705536,258.801300 
	C382.836945,258.279266 382.968353,257.757263 383.099762,257.235260 
	C381.385132,256.338593 379.431305,255.710709 378.029266,254.462845 
	C376.843323,253.407272 375.717529,251.649261 375.678162,250.172440 
	C375.653595,249.249634 377.693054,248.271805 379.355774,247.712021 
	C376.505829,251.167694 378.092285,252.475754 381.682007,253.377563 
z"/>
<path fill="#F4F4F4" opacity="1.000000" stroke="none" 
	d="
M240.167419,334.486877 
	C240.318298,337.982788 240.163330,341.138184 240.408264,344.262238 
	C240.527573,345.783875 241.393524,347.246979 241.925766,348.748657 
	C240.180023,348.748657 237.597412,348.748657 235.108398,348.748657 
	C237.895355,346.139771 237.889877,338.851532 234.357513,335.170959 
	C236.548187,334.770020 238.287186,334.451752 240.167419,334.486877 
z"/>
<path fill="#D8D8D8" opacity="1.000000" stroke="none" 
	d="
M353.748352,258.544495 
	C353.802765,258.765198 353.857147,258.985901 353.736755,259.888428 
	C351.450104,260.691589 349.338287,260.812927 347.226440,260.934235 
	C344.177704,257.773743 342.783997,254.165192 345.334320,250.189056 
	C347.177246,247.315811 349.866211,245.806625 353.691040,248.054779 
	C354.011292,248.667618 354.002411,249.072586 353.633545,249.633148 
	C351.414490,250.138000 348.456055,249.934006 347.940094,250.959183 
	C347.045898,252.736084 346.893280,255.772217 347.900024,257.329865 
	C348.659027,258.504150 351.714874,258.193939 353.748352,258.544495 
z"/>
<path fill="#E8E8E8" opacity="1.000000" stroke="none" 
	d="
M169.803284,250.518021 
	C170.092590,249.568512 170.381882,248.618988 170.671173,247.669479 
	C171.002106,247.688950 171.333038,247.708405 171.663971,247.727875 
	C172.708405,252.066299 173.752838,256.404724 174.834381,260.897308 
	C173.079041,261.922638 171.407089,262.899261 169.375610,263.453308 
	C169.526855,258.875458 171.725113,254.826340 169.803284,250.518021 
z"/>
<path fill="#CDCDCD" opacity="1.000000" stroke="none" 
	d="
M327.612183,249.553360 
	C327.291840,249.869339 327.115784,249.838348 327.135376,249.787964 
	C328.955597,248.854218 331.000305,246.995972 332.486664,247.368057 
	C333.907318,247.723709 335.375854,250.286469 335.699493,252.081696 
	C336.227570,255.010651 335.842163,258.104248 335.842163,261.128387 
	C335.071014,261.124390 334.299896,261.120392 333.528748,261.116364 
	C333.384430,258.853271 332.996765,256.573608 333.149597,254.330765 
	C333.416901,250.408188 332.342072,248.206635 327.612183,249.553360 
z"/>
<path fill="#C3C3C3" opacity="1.000000" stroke="none" 
	d="
M340.045410,260.951904 
	C339.603363,256.272339 339.603363,251.707031 339.603363,247.141708 
	C340.183929,247.163300 340.764496,247.184891 341.345062,247.206482 
	C341.689911,251.824692 343.320099,256.439484 340.045410,260.951904 
z"/>
<path fill="#D8D8D8" opacity="1.000000" stroke="none" 
	d="
M169.531677,250.768448 
	C171.725113,254.826340 169.526855,258.875458 169.017136,263.407806 
	C167.738174,263.414246 166.458176,263.043610 165.390137,262.185913 
	C166.417587,259.534332 167.233093,257.369751 168.048615,255.205170 
	C168.452423,253.809738 168.856232,252.414307 169.531677,250.768448 
z"/>
<path fill="#E8E8E8" opacity="1.000000" stroke="none" 
	d="
M167.687393,255.159988 
	C167.233093,257.369751 166.417587,259.534332 165.282043,261.853943 
	C163.223801,261.288452 161.485611,260.567932 159.419388,259.943848 
	C159.114960,259.076202 159.138550,258.112152 159.472931,257.083466 
	C163.212433,260.006989 164.728699,255.419357 167.687393,255.159988 
z"/>
<path fill="#1A1A1A" opacity="1.000000" stroke="none" 
	d="
M346.900818,260.914856 
	C349.338287,260.812927 351.450104,260.691589 353.771851,260.227600 
	C353.841248,261.149658 354.064026,263.267426 353.489105,263.512299 
	C352.022430,264.137024 350.140961,264.239044 348.540466,263.938293 
	C347.489532,263.740845 346.638702,262.478760 345.321564,261.727600 
	C345.488312,261.473022 346.031769,261.184235 346.900818,260.914856 
z"/>
<path fill="#060606" opacity="1.000000" stroke="none" 
	d="
M251.287003,244.718002 
	C253.352097,250.715134 255.081345,256.427917 257.276642,261.955597 
	C258.860321,265.943176 257.278015,267.170349 253.663269,267.207825 
	C248.871429,267.257538 244.078720,267.220093 238.774582,267.220093 
	C242.029892,257.394806 245.138321,248.012878 248.592300,237.588028 
	C249.646439,240.375977 250.398575,242.365189 251.287003,244.718002 
z"/>
<path fill="#1A1A1A" opacity="1.000000" stroke="none" 
	d="
M142.261993,245.811127 
	C143.660568,242.679626 144.996658,239.908447 146.886780,235.988190 
	C148.693497,242.336014 146.794479,245.447937 142.261993,245.811127 
z"/>
<path fill="#1A1A1A" opacity="1.000000" stroke="none" 
	d="
M251.626160,162.161072 
	C251.308350,164.579163 250.989395,166.569580 250.596588,169.020935 
	C247.144058,165.649704 246.991730,159.961777 250.320999,155.243820 
	C250.851868,157.885803 251.238449,159.809601 251.626160,162.161072 
z"/>
<path fill="#060606" opacity="1.000000" stroke="none" 
	d="
M362.896973,252.417816 
	C364.480591,251.024139 365.940735,249.438004 367.529663,249.296356 
	C368.497070,249.210114 370.448547,251.280075 370.559418,252.507812 
	C370.734772,254.449448 370.086487,256.706512 369.071899,258.402496 
	C368.631805,259.138153 365.527039,259.399353 365.168060,258.857941 
	C364.005066,257.104034 363.553436,254.878403 362.896973,252.417816 
z"/>
<path fill="#0B0B0B" opacity="1.000000" stroke="none" 
	d="
M353.868652,258.199646 
	C351.714874,258.193939 348.659027,258.504150 347.900024,257.329865 
	C346.893280,255.772217 347.045898,252.736084 347.940094,250.959183 
	C348.456055,249.934006 351.414490,250.138000 353.618835,249.936798 
	C353.972412,252.674850 353.980682,255.264847 353.868652,258.199646 
z"/>
</svg>